<?xml version="1.0" encoding="UTF-8"?>
<svg width="188px" height="37px" viewBox="0 0 188 37" version="1.1" xmlns="http://www.w3.org/2000/svg" xmlns:xlink="http://www.w3.org/1999/xlink">
    <!-- Generator: Sketch 50.2 (55047) - http://www.bohemiancoding.com/sketch -->
    <title>asus-6630</title>
    <desc>Created with Sketch.</desc>
    <defs></defs>
    <g id="Page-1" stroke="none" stroke-width="1" fill="none" fill-rule="evenodd">
        <g id="asus-6630" fill="#000000" fill-rule="nonzero">
            <path d="M183.533,0.427 C184.269,0.427 184.99,0.615 185.693,0.993 C186.386361,1.36359408 186.95663,1.92830319 187.334,2.618 C187.725,3.321 187.922,4.056 187.922,4.821 C187.922,5.577 187.729,6.305 187.342,7.002 C186.967568,7.68826658 186.404343,8.25287993 185.719,8.629 C185.052684,9.00795648 184.29954,9.20778433 183.533,9.209 C182.766484,9.20760233 182.013385,9.00778657 181.347,8.629 C180.660519,8.25303781 180.095962,7.68848066 179.72,7.002 C179.340329,6.33769747 179.139777,5.58614376 179.138,4.821 C179.138,4.056 179.335,3.321 179.728,2.618 C180.107037,1.92784442 180.679035,1.36314452 181.374,0.993 C182.034878,0.62642232 182.777278,0.431795793 183.533,0.427 Z M183.533,1.154 C182.916,1.154 182.316,1.313 181.732,1.629 C181.148,1.945 180.691,2.398 180.361,2.984 C180.031,3.572 179.867,4.184 179.867,4.821 C179.867,5.452 180.029,6.058 180.353,6.638 C180.675,7.218 181.128,7.671 181.71,7.995 C182.265253,8.31143018 182.892915,8.47885284 183.532,8.481 C184.171054,8.47862631 184.798661,8.31121875 185.354,7.995 C185.925467,7.68099208 186.395258,7.21016065 186.708,6.638 C187.03,6.058 187.19,5.452 187.19,4.821 C187.19,4.183 187.028,3.571 186.7,2.984 C186.372,2.398 185.915,1.945 185.329,1.629 C184.743,1.313 184.145,1.154 183.533,1.154 Z M181.607,7.247 L181.607,2.523 L183.228,2.523 C183.785,2.523 184.187,2.565 184.435,2.652 C184.683,2.739 184.88,2.892 185.029,3.109 C185.175,3.328 185.25,3.558 185.25,3.802 C185.25,4.148 185.127,4.448 184.881,4.703 C184.633,4.96 184.307,5.102 183.899,5.135 C184.067,5.204 184.202,5.287 184.301,5.385 C184.49,5.572 184.723,5.884 185,6.323 L185.576,7.247 L184.644,7.247 L184.224,6.502 C183.894,5.918 183.63,5.551 183.427,5.404 C183.288,5.295 183.083,5.241 182.816,5.241 L182.369,5.241 L182.369,7.247 L181.607,7.247 Z M182.369,4.589 L183.295,4.589 C183.736,4.589 184.037,4.521 184.199,4.39 C184.357677,4.26318374 184.447344,4.06902846 184.441,3.866 C184.441544,3.73193457 184.400683,3.60097052 184.324,3.491 C184.243224,3.37908932 184.13121,3.29351333 184.002,3.245 C183.863,3.189 183.609,3.163 183.234,3.163 L182.369,3.163 L182.369,4.589 Z M98.865,0.138 L99.011,0.138 L99.011,10.234 L88.811,10.234 L88.811,0.138 L98.865,0.138 Z M54.473,21.488 L78.064,22.951 C79.045,22.951 79.847,23.754 79.847,24.734 C79.847,25.714 79.045,26.517 78.064,26.517 L44.443,26.517 L44.443,13.375 C45.476,17.433 49.032,20.752 54.473,21.488 Z M44.443,36.67 L78.815,36.67 C83.825,36.67 88.032,33.055 88.959,28.305 C89.777,33.039 93.918,36.67 98.866,36.67 L120.827,36.67 C125.733,36.67 129.848,33.098 130.712,28.42 L130.712,36.67 L165.923,36.67 C171.607,36.67 176.257,32.02 176.257,26.334 L176.257,24.871 C176.257,19.187 171.607,14.537 165.923,14.537 L163.991,14.452 C153.036,13.97 142.114,13.418 131.173,12.853 C132.025,17.146 135.648,20.72 141.321,21.488 L165.171,22.951 C166.154911,22.9537409 166.952156,23.7500928 166.956,24.734 C166.952156,25.7179072 166.154911,26.5142591 165.171,26.517 L130.88,26.517 L130.88,12.838 L120.681,12.312 L120.681,24.012 C120.676604,25.6543275 119.346328,26.9846043 117.704,26.989 L101.989,26.989 C100.346445,26.9851513 99.0158487,25.6545549 99.012,24.012 L99.012,11.194 L88.811,10.668 L88.811,22.266 C87.645,17.879 83.595,14.716 78.815,14.716 L33.892,11.779 L33.892,36.671 L44.443,36.671 L44.443,36.67 Z M87.19,10.239 L87.19,0.087 L54.473,0.087 C49.643,0.087 45.561,3.444 44.443,7.941 L44.443,0.137 L24.914,0.137 L18.259,10.234 L44.142,10.234 L87.19,10.239 Z M29.584,11.529 L13.453,36.67 L0.834,36.67 L17.852,10.852 L29.584,11.529 Z M176.256,10.239 L176.256,0.087 L141.32,0.087 C135.699,0.087 131.09,4.636 130.988,10.234 L176.256,10.239 Z M120.68,10.234 L120.68,0.138 L130.879,0.138 L130.879,10.234 L120.68,10.234 Z" id="Shape" fill="#ffffff"/>
        </g>
    </g>
</svg>
