<?xml version="1.0" encoding="UTF-8"?>
<svg width="181px" height="188px" viewBox="0 0 181 188" version="1.1" xmlns="http://www.w3.org/2000/svg" xmlns:xlink="http://www.w3.org/1999/xlink">
    <!-- Generator: Sketch 50.2 (55047) - http://www.bohemiancoding.com/sketch -->
    <title>huawei-1</title>
    <desc>Created with Sketch.</desc>
    <defs></defs>
    <g id="Page-1" stroke="none" stroke-width="1" fill="none" fill-rule="evenodd">
        <g id="huawei-1" fill-rule="nonzero">
            <path d="M89.256,123.784 L82.848,8.368 C82.8477348,6.36279008 83.6441154,4.43961759 85.0619191,3.02162628 C86.4797229,1.60363497 88.4027901,0.806999982 90.408,0.807 C92.4133832,0.80673472 94.3367073,1.6032526 95.7547273,3.02127267 C97.1727474,4.43929274 97.9692653,6.36261681 97.969,8.368 L91.489,123.784 L89.256,123.784 Z M82.632,124.216 L61.176,11.248 C60.6,7.144 63.552,3.328 67.655,2.824 C71.759,2.248 75.503,5.2 76.079,9.303 L85.008,124 L82.632,124.216 Z M76.08,125.224 L42.528,20.176 C41.52,16.216 43.896,12.256 47.784,11.176 C51.672,10.168 55.704,12.544 56.712,16.432 L78.744,124.72 C77.808,124.864 76.944,125.08 76.08,125.224 Z M70.032,126.736 L26.256,32.992 C24.816,29.391 26.544,25.288 30.144,23.847 C33.744,22.407 37.848,24.207 39.288,27.807 L72.264,126.087 C71.544,126.304 70.752,126.52 70.032,126.736 Z M63.696,129.04 L13.152,48.688 C11.352,45.52 12.504,41.416 15.744,39.616 C18.912,37.816 23.016,39.04 24.816,42.208 L65.928,128.176 C65.136,128.464 64.416,128.752 63.696,129.04 Z M57.432,132.063 L6.096,70.288 C4.152,67.552 4.728,63.736 7.392,61.792 C10.128,59.776 13.944,60.352 15.888,63.088 L59.664,130.912 C58.898395,131.252238 58.1531462,131.636548 57.432,132.063 Z M49.944,136.888 L2.064,94.552 C-0.024,92.464 -0.024,89.008 2.064,86.92 C4.152,84.76 7.608,84.76 9.696,86.848 L51.888,135.52 C51.24,135.952 50.592,136.456 49.944,136.888 Z M43.68,142.504 L9.408,121.336 C7.464,119.968 7.032,117.16 8.4,115.216 C9.84,113.272 12.576,112.84 14.52,114.208 L45.192,141.063 C44.688,141.496 44.184,142 43.68,142.504 Z M98.111,124.216 L119.64,11.248 C120.144,7.144 117.263,3.328 113.16,2.824 C109.056,2.248 105.24,5.2 104.736,9.303 L95.736,123.999 L98.111,124.216 Z M104.664,125.296 L138.287,20.176 C139.297,16.216 136.92,12.256 133.031,11.176 C129.144,10.168 125.111,12.544 124.103,16.432 L102.072,124.792 C102.936,124.936 103.801,125.08 104.664,125.296 Z M110.713,126.808 L154.561,32.993 C156,29.392 154.2,25.289 150.6,23.848 C147,22.408 142.897,24.208 141.455,27.808 L108.48,126.16 C109.271,126.376 109.992,126.592 110.713,126.808 Z M117.049,129.112 L167.664,48.688 C169.465,45.52 168.312,41.416 165.072,39.616 C161.832,37.816 157.728,39.04 156,42.208 L114.889,128.248 L117.049,129.112 Z M123.312,132.136 L174.648,70.288 C176.664,67.552 176.087,63.736 173.423,61.792 C170.687,59.776 166.87,60.352 164.927,63.088 L121.079,130.984 C121.871,131.344 122.592,131.775 123.312,132.136 Z M130.729,137.032 L178.68,94.552 C180.84,92.464 180.84,89.008 178.752,86.92 C176.664,84.76 173.207,84.76 171.119,86.848 L128.855,135.664 C129.432,136.096 130.08,136.527 130.729,137.032 Z M137.137,142.504 L171.408,121.336 C173.351,119.968 173.783,117.16 172.416,115.216 C170.977,113.272 168.24,112.84 166.297,114.208 L135.623,141.063 C136.129,141.496 136.633,142 137.137,142.504 Z" id="Shape" fill="#CC2229"/>
            <path d="M15.96,187.072 L11.856,187.072 L11.856,156.184 L15.96,156.184 L15.96,169.072 L31.152,169.072 L31.152,156.184 L35.184,156.184 L35.184,187.072 L31.152,187.072 L31.152,172.527 L15.96,172.527 L15.96,187.072 Z M45.984,156.184 L45.984,176.56 C46.056,177.281 46.128,178 46.272,178.72 C46.56,180.16 47.28,181.456 48.288,182.68 C49.368,183.905 51.24,184.48 53.832,184.48 C57,184.48 59.088,183.544 60.168,181.745 C61.176,179.873 61.68,177.497 61.68,174.545 L61.68,156.185 L65.712,156.185 L65.712,175.122 C65.712,179.298 64.92,182.25 63.408,184.05 C61.824,185.778 60.096,186.93 58.224,187.362 C57.4706455,187.575588 56.6994963,187.720513 55.92,187.795 C55.2,187.867 54.48,187.939 53.832,187.939 C49.944,187.939 47.136,187.147 45.48,185.492 C43.896,183.908 42.816,182.107 42.384,180.092 C42.1702638,179.241079 42.0257915,178.374245 41.952,177.5 C41.952,176.636 41.88,175.844 41.88,175.124 L41.88,156.187 L45.984,156.187 L45.984,156.184 Z M73.056,187.072 L68.736,187.072 L80.112,156.183 L84.432,156.183 L95.881,187.072 L91.561,187.072 L88.608,179.08 L75.864,179.08 L73.056,187.072 Z M87.6,175.624 L82.272,160.359 L77.016,175.624 L87.6,175.624 Z M108.695,187.072 L103.584,187.072 L95.592,156.184 L100.057,156.184 L106.393,182.104 L112.656,156.184 L117.336,156.184 L123.6,182.104 L129.863,156.184 L134.4,156.184 L126.408,187.072 L121.297,187.072 L115.031,161.08 L108.695,187.072 Z M157.801,169.359 L157.801,172.888 L141.959,172.888 L141.959,183.544 L159.959,183.544 L159.959,187.072 L137.928,187.072 L137.928,156.184 L159.455,156.184 L159.455,159.712 L141.959,159.712 L141.959,169.359 L157.801,169.359 Z M168.312,156.184 L168.312,187.072 L164.279,187.072 L164.279,156.184 L168.312,156.184 Z" id="Shape" fill="#ffffff"/>
        </g>
    </g>
</svg>
