<?xml version="1.0" encoding="UTF-8"?>
<svg width="167px" height="80px" viewBox="0 0 167 80" version="1.1" xmlns="http://www.w3.org/2000/svg" xmlns:xlink="http://www.w3.org/1999/xlink">
    <!-- Generator: Sketch 50.2 (55047) - http://www.bohemiancoding.com/sketch -->
    <title>lg-electronics-1</title>
    <desc>Created with Sketch.</desc>
    <defs></defs>
    <g id="Page-1" stroke="none" stroke-width="1" fill="none" fill-rule="evenodd">
        <g id="lg-electronics-1" fill-rule="nonzero">
            <path d="M39.979,79.844 C61.775,79.844 79.446,62.174 79.446,40.378 C79.446,18.582 61.776,0.912 39.979,0.912 C18.182,0.912 0.512,18.582 0.512,40.378 C0.512,62.174 18.182,79.844 39.979,79.844 Z" id="Shape" fill="#A70B52"></path>
            <polygon id="Shape" fill="#FFFFFF" points="49.589 54.266 41.416 54.266 41.416 23.377 38.385 23.377 38.385 57.316 41.416 57.316 41.416 57.295 49.589 57.295"></polygon>
            <path d="M69.989,41.641 L49.637,41.641 L49.637,38.611 L72.97,38.611 C73.001,39.197 73.016,39.784 73.016,40.378 C73.016,58.625 58.224,73.416 39.978,73.416 C21.732,73.416 6.94,58.625 6.94,40.378 C6.94,22.131 21.732,7.34 39.979,7.34 C40.46,7.34 40.94,7.35 41.417,7.371 L41.413,10.379 C40.9353182,10.3569496 40.4571904,10.3459466 39.979,10.346 C23.393,10.346 9.946,23.792 9.946,40.378 C9.946,56.965 23.392,70.41 39.979,70.41 C56.113,70.41 69.275,57.689 69.981,41.728 L69.989,41.641 Z" id="Shape" fill="#FFFFFF"></path>
            <path d="M27.655,32.521 C30.218982,32.521 32.2975,30.442482 32.2975,27.8785 C32.2975,25.314518 30.218982,23.236 27.655,23.236 C25.091018,23.236 23.0125,25.314518 23.0125,27.8785 C23.0125,30.442482 25.091018,32.521 27.655,32.521 Z" id="Shape" fill="#FFFFFF"></path>
            <path d="M99.043,59.75 L127.244,59.75 L127.244,51.234 L109.398,51.234 L109.398,20.735 L99.043,20.735 L99.043,59.75 Z M161.318,23.482 C158.084,20.977 153.922,19.707 148.953,19.707 C143.053,19.707 138.125,21.519 134.699,24.943 C131.121,28.522 129.228,33.794 129.228,40.189 C129.228,47.02 131.23,52.786 134.865,56.418 C137.717,59.27 141.521,60.777 145.871,60.777 C155.422,60.777 157.619,55.052 157.619,55.052 L157.619,59.749 L166.244,59.749 L166.244,37.714 L149.076,37.714 L149.076,44.609 L156.978,44.609 C156.978,44.609 157.054,53.289 148.898,53.289 C146.826,53.289 144.98,52.537 143.56,51.117 C141.347,48.906 140.177,45.181 140.177,40.35 C140.177,32.35 143.357,27.574 148.681,27.574 C152.007,27.574 154.507,29.616 155.148,32.711 L166.132,32.711 C165.562,28.215 164.328,25.871 161.318,23.482 Z" id="Shape" fill="#808183"></path>
        </g>
    </g>
</svg>