<?xml version="1.0" encoding="UTF-8"?>
<svg width="145px" height="97px" viewBox="0 0 145 97" version="1.1" xmlns="http://www.w3.org/2000/svg" xmlns:xlink="http://www.w3.org/1999/xlink">
    <!-- Generator: Sketch 50.2 (55047) - http://www.bohemiancoding.com/sketch -->
    <title>motorola-2</title>
    <desc>Created with Sketch.</desc>
    <defs></defs>
    <g id="Page-1" stroke="none" stroke-width="1" fill="none" fill-rule="evenodd">
        <g id="motorola-2" transform="translate(0.000000, -1.000000)" fill="#000000" fill-rule="nonzero">
            <path d="M0.607,96.95 L4.116,85.015 L10.159,85.015 L11.685,90.115 L16.069,84.991 L22.483,84.991 L19.145,96.939 L14.298,96.956 L16.069,90.792 L10.444,96.956 L8.061,96.956 L6.325,90.362 L4.374,96.956 L0.607,96.95 Z M43.295,84.989 L58.184,85.015 L57.29,88.869 L52.178,88.869 L50.078,96.95 L45.366,96.956 L47.325,88.903 L42.293,88.903 L43.295,84.989 Z M83.229,85.011 L83.229,87.786 L83.237,87.786 L82.657,90.095 L87.761,90.095 C87.761,90.095 89.001,89.88 89.072,88.749 C89.131,87.748 88.199,87.818 88.199,87.818 L83.23,87.8 L83.23,85.014 L90.919,85.01 C90.919,85.01 94.21,85.259 93.89,88.107 C93.56,90.953 90.535,91.861 90.535,91.861 C90.535,91.861 90.351,92.043 90.494,92.15 C90.637,92.255 91.767,92.468 91.91,93.533 C92.053,94.6 91.539,95.376 91.539,95.699 C91.539,96.016 91.572,96.656 91.977,96.939 L87.118,96.939 C87.118,96.939 86.251,96.806 86.325,95.911 C86.397,95.026 86.438,94.247 86.438,94.247 C86.438,94.247 86.366,93.318 85.063,93.429 L81.51,93.394 L80.498,96.951 L76.041,96.951 L79.434,85.012 L83.229,85.012 L83.229,85.011 Z M116.977,85.011 L121.537,85.011 L119.328,93.67 L126.832,93.67 L125.961,96.96 L113.861,96.96 L116.977,85.011 Z M141.412,85.001 L144.148,96.956 L139.404,96.956 L138.902,94.884 L138.885,94.844 L133.137,94.844 L133.117,94.862 L131.729,96.95 L127.711,96.956 L135.824,85.001 L137.396,88.525 L135.043,92.009 L135.111,92.034 L138.16,92.034 L138.215,92.028 L137.396,88.525 L135.824,85.001 L141.412,85.001 Z M33.113,87.657 C34.56,87.657 35.985,88.373 36.21,89.412 C36.897,92.735 33.353,94.158 33.769,93.949 C31.73,94.96 28.632,94.636 28.268,92.541 C27.923,90.527 29.478,88.544 30.787,88.071 C31.683,87.748 32.422,87.611 33.113,87.657 L33.123,87.626 L33.14,84.528 C32.203,84.547 31.148,84.663 30.316,84.826 C26.743,85.511 22.24,88.757 23.033,92.866 C23.701,96.339 28.412,98.203 33.694,97.182 C38.647,96.231 41.89,92.417 41.193,89.034 C40.523,85.761 36.646,84.528 33.14,84.528 L33.14,87.207 L33.113,87.657 Z M67.743,87.657 C69.188,87.657 70.618,88.373 70.83,89.412 C71.53,92.735 67.982,94.158 68.405,93.949 C66.363,94.96 63.262,94.636 62.901,92.541 C62.551,90.527 64.107,88.544 65.419,88.071 C66.312,87.748 67.061,87.611 67.743,87.657 L67.753,87.626 L67.773,84.528 C66.8231752,84.5508717 65.8767562,84.6505299 64.943,84.826 C61.373,85.511 56.863,88.757 57.656,92.866 C58.323,96.339 63.046,98.203 68.319,97.182 C73.277,96.231 76.525,92.417 75.825,89.034 C75.153,85.761 71.277,84.528 67.772,84.528 L67.772,87.207 L67.743,87.657 Z M105.391,87.626 C106.836,87.706 108.252,88.373 108.473,89.412 C109.164,92.735 105.619,94.158 106.045,93.949 C104.002,94.96 100.902,94.636 100.539,92.541 C100.191,90.527 101.742,88.544 103.057,88.071 C104.133,87.68 104.553,87.571 105.391,87.626 L105.411,84.528 C104.461206,84.5513486 103.514825,84.6510028 102.581,84.826 C99.017,85.511 94.511,88.757 95.3,92.866 C95.968,96.339 100.687,98.203 105.964,97.182 C110.917,96.231 114.165,92.417 113.46,89.034 C112.792,85.761 108.915,84.528 105.411,84.528 L105.411,87.207 L105.391,87.626 Z M72.431,0.991 C92.574,0.991 108.43,17.215 108.43,36.976 C108.43,56.854 92.309,72.964 72.431,72.964 C52.553,72.964 36.443,56.854 36.443,36.976 C36.443,17.098 52.554,0.991 72.431,0.991 Z M72.351,44.521 L62.283,11.121 L49.248,53.884 L51.694,53.884 C51.694,53.884 53.341,46.445 56.009,42.001 C57.466,39.592 59.709,37.619 62.709,37.675 C64.823,37.713 66.651,38.871 68.937,42.061 C70.311,43.98 72.427,48.862 72.427,48.862 C72.427,48.862 74.543,43.987 75.922,42.061 C78.199,38.871 80.029,37.713 82.147,37.675 C85.141,37.618 87.393,39.592 88.844,42.005 C91.518,46.444 93.16,53.883 93.16,53.883 L95.611,53.883 L82.568,11.12 L72.5,44.521 L72.432,44.582 L72.351,44.521 Z" id="Shape" fill="#ffffff"/>
        </g>
    </g>
</svg>
