<?xml version="1.0" encoding="UTF-8"?>
<svg width="600px" height="143px" viewBox="0 0 600 143" version="1.1" xmlns="http://www.w3.org/2000/svg" xmlns:xlink="http://www.w3.org/1999/xlink">
    <!-- Generator: Sketch 50.2 (55047) - http://www.bohemiancoding.com/sketch -->
    <title>oneplus</title>
    <desc>Created with Sketch.</desc>
    <defs></defs>
    <g id="Page-1" stroke="none" stroke-width="1" fill="none" fill-rule="evenodd">
        <g id="oneplus" fill-rule="nonzero" stroke-width="0.094">
            <path d="M113.1,0.2 C113,6.9 113,13.6 113,20.3 C106.1,20.4 99.2,20.4 92.3,20.3 L92.3,30.5 C99.2,30.5 106.1,30.4 113,30.6 L113,50.8 C116.3,50.8 119.6,50.8 122.9,50.9 C123,44.1 122.9,37.3 122.9,30.6 C129.5,30.5 136.2,30.4 142.8,30.7 C143.2,27.2 143,23.7 142.9,20.3 C136.2,20.4 129.6,20.4 122.9,20.3 L122.9,0.2 L113.1,0.2 Z M0.4,20.3 L0.4,142.6 C41.2,142.6 82,142.5 122.9,142.7 C123.1,117.8 122.9,92.9 122.9,68 L113,68 L113,132.3 C78.9,132.5 44.7,132.4 10.6,132.4 L10.6,30.5 C32.1,30.5 53.6,30.6 75.1,30.4 C74.9,27 75.1,23.6 74.9,20.3 C50,20.5 25.2,20.3 0.4,20.3 Z M161.3,20.4 C161.1,20.7 160.7,21.1 160.5,21.3 C160.4,59.9 160.5,98.5 160.5,137.1 C160.6,138.9 160.1,141 161.1,142.7 C307.3,142.5 453.4,142.6 599.6,142.6 L599.6,20.4 C453.5,20.5 307.4,20.4 161.3,20.4 Z M41.2,51.1 C41.3,54.4 41.3,57.7 41.2,60.9 C46.9,61.1 52.5,61 58.2,61 C58.2,74.7 58.3,88.3 58.2,102 C52.5,102.1 46.8,101.9 41.2,102.1 C41.3,105.4 41.3,108.7 41.2,111.9 C55.8,112 70.4,111.9 85,112 L85,102 C79.5,101.9 73.9,102.3 68.4,101.7 C68.5,84.8 68.4,67.9 68.4,51 C59.3,51.1 50.3,50.9 41.2,51.1 Z" id="Shape" stroke="#FFFFFF" fill="#FFFFFF"></path>
            <path d="M113.1,0.2 L122.9,0.2 L122.9,20.3 C129.6,20.4 136.2,20.4 142.9,20.3 C143,23.7 143.2,27.2 142.8,30.7 C136.2,30.4 129.5,30.5 122.9,30.6 C122.9,37.3 123,44.1 122.9,50.9 C119.6,50.8 116.3,50.8 113,50.8 L113,30.6 C106.1,30.4 99.2,30.5 92.3,30.5 L92.3,20.3 C99.2,20.4 106.1,20.4 113,20.3 C113,13.6 113,6.9 113.1,0.2 Z M0.4,20.3 C25.2,20.3 50,20.5 74.9,20.3 C75.1,23.6 74.9,27 75.1,30.4 C53.6,30.6 32.1,30.5 10.6,30.5 L10.6,132.4 C44.7,132.4 78.9,132.5 113,132.3 L113,68 L122.9,68 C122.9,92.9 123.1,117.8 122.9,142.7 C82,142.5 41.2,142.6 0.4,142.6 L0.4,20.3 Z M161.3,20.4 C307.4,20.4 453.5,20.5 599.6,20.4 L599.6,142.6 C453.4,142.6 307.3,142.5 161.1,142.7 C160.1,141 160.6,138.9 160.5,137.1 C160.5,98.5 160.4,59.9 160.5,21.3 C160.7,21.1 161.1,20.7 161.3,20.4 Z M213.5,51.8 C206.7,53.5 200.3,57.5 196.4,63.4 C188.1,75.8 189.5,94.2 200.5,104.5 C212.9,115.8 234.9,114.8 245.5,101.5 C255.3,89.1 254.3,69.2 242.4,58.4 C234.7,51.5 223.5,49.5 213.5,51.8 Z M262.7,50.9 C262.6,71.3 262.6,91.8 262.6,112.2 C266,112.2 269.4,112.2 272.8,112.1 C272.6,98.1 273.1,84 272.6,70 L273.7,70.6 C283.5,83.7 293.4,96.7 303.2,109.8 C305.4,113.4 310.3,112.1 313.8,111.9 C313.6,91.7 313.7,71.4 313.7,51.2 C310.3,51.1 306.8,50.7 303.4,51.2 C303.6,65.2 303.2,79.2 303.6,93.1 C292.9,79.9 282.7,66.2 272.2,52.8 C270.1,49.8 265.8,51.6 262.7,50.9 Z M327.2,51 C327.3,71.4 327.2,91.7 327.2,112 C339.7,112.1 352.3,112.2 364.8,111.9 C364.7,109 364.7,106.1 364.7,103.2 C355.7,103.2 346.7,103 337.7,103.2 C337.3,97.1 337.3,90.9 337.7,84.7 C344.4,84.9 351.1,84.8 357.8,84.8 C357.8,82 357.8,79.1 357.7,76.2 C351,76.4 344.3,76.1 337.6,76.4 C337.1,71 337.7,65.5 337.3,60.1 C346.4,59.4 355.6,60 364.8,59.8 C364.7,56.9 364.7,53.9 364.8,51 C352.3,50.8 339.7,50.8 327.2,51 Z M378.2,51.1 C378.3,71.3 378.3,91.6 378.2,111.9 C381,111.9 383.7,111.9 386.4,112 L386.4,88.2 C392.9,88 399.7,88.9 406,86.9 C411,85.3 415.6,81.8 417.6,76.9 C420.4,70.3 419.4,61.9 414.3,56.7 C410.1,52.5 403.8,51.1 398,50.9 C391.4,50.9 384.8,50.7 378.2,51.1 Z M429.6,112.2 C440.9,112 452.1,112.2 463.4,112.2 C463.4,109.8 463.5,107.5 463.3,105.2 C454.7,105.4 446.2,105.2 437.6,105.3 C437.6,87.2 437.5,69.2 437.7,51.2 C435,50.7 432.3,50.9 429.6,50.8 C429.3,71.3 429.2,91.8 429.6,112.2 Z M470.2,51 C470.3,62.7 470.2,74.3 470.2,86 C470,91.5 470.9,97.3 474,102 C480.7,112.9 496.5,115.3 507,109 C513.9,104.9 517.7,96.9 517.8,89 C517.9,76.3 517.8,63.6 517.8,50.9 C515.1,50.9 512.4,50.8 509.7,50.8 L509.7,88 C509.8,92.9 508.2,98.1 504.5,101.4 C498.6,106.7 488.7,106.5 483,100.9 C479.7,97.6 478.3,92.7 478.3,88 C478.3,75.6 478.4,63.2 478.3,50.9 C475.6,50.8 472.9,50.8 470.2,51 Z M539.9,53.8 C532,58.4 529.8,70.3 535.7,77.3 C539.5,81.7 545.5,83 550.9,84.8 C554.7,86 559.1,87.5 560.7,91.5 C562.4,96.3 560,102.3 555.3,104.3 C550.5,106.4 544.6,105.9 540,103.2 C537.9,102.2 536.3,100.1 533.9,99.5 C531.7,100.2 530.9,102.8 529.9,104.8 C537.5,112.3 550.1,114.9 559.8,109.7 C568.5,105.1 572,92.1 565.8,84.2 C559.9,77.5 549.9,77.9 542.9,72.9 C538.2,69.6 539.4,61.8 544.2,59.2 C550,56 557.3,57.7 562.3,61.6 C565.4,63.6 566.4,58.8 567.6,56.9 C560.3,50.2 548.4,48.6 539.9,53.8 Z" id="Shape" stroke="#EB0028" fill="#EB0028"></path>
            <path d="M41.2,51.1 C50.3,50.9 59.3,51.1 68.4,51 C68.4,67.9 68.5,84.8 68.4,101.7 C73.9,102.3 79.5,101.9 85,102 L85,112 C70.4,111.9 55.8,112 41.2,111.9 C41.3,108.7 41.3,105.4 41.2,102.1 C46.8,101.9 52.5,102.1 58.2,102 C58.3,88.3 58.2,74.7 58.2,61 C52.5,61 46.9,61.1 41.2,60.9 C41.3,57.7 41.3,54.4 41.2,51.1 Z" id="Shape" stroke="#EB0028" fill="#EB0028"></path>
            <path d="M213.5,51.8 C223.5,49.5 234.7,51.5 242.4,58.4 C254.3,69.2 255.3,89.1 245.5,101.5 C234.9,114.8 212.9,115.8 200.5,104.5 C189.5,94.2 188.1,75.8 196.4,63.4 C200.3,57.5 206.7,53.5 213.5,51.8 Z M214.4,61.6 C208.6,63.6 204.5,68.9 203.3,74.8 C201.9,81.6 202.3,89.1 206.1,95 C212.9,105.5 231.1,105.4 237.5,94.5 C240.4,89.6 241,83.7 240.4,78.1 C239.9,72.7 237.6,67.1 233.1,63.9 C227.8,60 220.5,59.6 214.4,61.6 Z M262.7,50.9 C265.8,51.6 270.1,49.8 272.2,52.8 C282.7,66.2 292.9,79.9 303.6,93.1 C303.2,79.2 303.6,65.2 303.4,51.2 C306.8,50.7 310.3,51.1 313.7,51.2 C313.7,71.4 313.6,91.7 313.8,111.9 C310.3,112.1 305.4,113.4 303.2,109.8 C293.4,96.7 283.5,83.7 273.7,70.6 L272.6,70 C273.1,84 272.6,98.1 272.8,112.1 C269.4,112.2 266,112.2 262.6,112.2 C262.6,91.8 262.6,71.3 262.7,50.9 Z M327.2,51 C339.7,50.8 352.3,50.8 364.8,51 C364.7,53.9 364.7,56.9 364.8,59.8 C355.6,60 346.4,59.4 337.3,60.1 C337.7,65.5 337.1,71 337.6,76.4 C344.3,76.1 351,76.4 357.7,76.2 C357.8,79.1 357.8,82 357.8,84.8 C351.1,84.8 344.4,84.9 337.7,84.7 C337.3,90.9 337.3,97.1 337.7,103.2 C346.7,103 355.7,103.2 364.7,103.2 C364.7,106.1 364.7,109 364.8,111.9 C352.3,112.2 339.7,112.1 327.2,112 C327.2,91.7 327.3,71.4 327.2,51 Z M378.2,51.1 C384.8,50.7 391.4,50.9 398,50.9 C403.8,51.1 410.1,52.5 414.3,56.7 C419.4,61.9 420.4,70.3 417.6,76.9 C415.6,81.8 411,85.3 406,86.9 C399.7,88.9 392.9,88 386.4,88.2 L386.4,112 C383.7,111.9 381,111.9 378.2,111.9 C378.3,91.6 378.3,71.3 378.2,51.1 Z M386.4,57.3 L386.4,81.7 C390.5,81.7 394.6,81.8 398.7,81.6 C402.9,81.3 407.4,79.3 409.4,75.4 C412.2,70.2 411.3,62.4 405.7,59.3 C399.7,56.2 392.8,57.7 386.4,57.3 Z M429.6,112.2 C429.2,91.8 429.3,71.3 429.6,50.8 C432.3,50.9 435,50.7 437.7,51.2 C437.5,69.2 437.6,87.2 437.6,105.3 C446.2,105.2 454.7,105.4 463.3,105.2 C463.5,107.5 463.4,109.8 463.4,112.2 C452.1,112.2 440.9,112 429.6,112.2 Z M470.2,51 C472.9,50.8 475.6,50.8 478.3,50.9 C478.4,63.2 478.3,75.6 478.3,88 C478.3,92.7 479.7,97.6 483,100.9 C488.7,106.5 498.6,106.7 504.5,101.4 C508.2,98.1 509.8,92.9 509.7,88 L509.7,50.8 C512.4,50.8 515.1,50.9 517.8,50.9 C517.8,63.6 517.9,76.3 517.8,89 C517.7,96.9 513.9,104.9 507,109 C496.5,115.3 480.7,112.9 474,102 C470.9,97.3 470,91.5 470.2,86 C470.2,74.3 470.3,62.7 470.2,51 Z M539.9,53.8 C548.4,48.6 560.3,50.2 567.6,56.9 C566.4,58.8 565.4,63.6 562.3,61.6 C557.3,57.7 550,56 544.2,59.2 C539.4,61.8 538.2,69.6 542.9,72.9 C549.9,77.9 559.9,77.5 565.8,84.2 C572,92.1 568.5,105.1 559.8,109.7 C550.1,114.9 537.5,112.3 529.9,104.8 C530.9,102.8 531.7,100.2 533.9,99.5 C536.3,100.1 537.9,102.2 540,103.2 C544.6,105.9 550.5,106.4 555.3,104.3 C560,102.3 562.4,96.3 560.7,91.5 C559.1,87.5 554.7,86 550.9,84.8 C545.5,83 539.5,81.7 535.7,77.3 C529.8,70.3 532,58.4 539.9,53.8 Z" id="Shape" stroke="#FFFFFF" fill="#FFFFFF"></path>
            <path d="M386.4,57.3 C392.8,57.7 399.7,56.2 405.7,59.3 C411.3,62.4 412.2,70.2 409.4,75.4 C407.4,79.3 402.9,81.3 398.7,81.6 C394.6,81.8 390.5,81.7 386.4,81.7 L386.4,57.3 Z M214.4,61.6 C220.5,59.6 227.8,60 233.1,63.9 C237.6,67.1 239.9,72.7 240.4,78.1 C241,83.7 240.4,89.6 237.5,94.5 C231.1,105.4 212.9,105.5 206.1,95 C202.3,89.1 201.9,81.6 203.3,74.8 C204.5,68.9 208.6,63.6 214.4,61.6 Z" id="Shape" stroke="#EB0028" fill="#EB0028"></path>
        </g>
    </g>
</svg>