<?xml version="1.0" encoding="UTF-8"?>
<svg width="161px" height="25px" viewBox="0 0 161 25" version="1.1" xmlns="http://www.w3.org/2000/svg" xmlns:xlink="http://www.w3.org/1999/xlink">
    <!-- Generator: Sketch 50.2 (55047) - http://www.bohemiancoding.com/sketch -->
    <title>Shape</title>
    <desc>Created with Sketch.</desc>
    <defs></defs>
    <g id="Page-1" stroke="none" stroke-width="1" fill="none" fill-rule="evenodd">
        <g id="samsung-1" transform="translate(-16.000000, 0.000000)" fill="#000000" fill-rule="nonzero">
            <path d="M104.127,11.542 C104.127,11.542 102.568,10.578 101.604,10.205 C101.604,10.205 98.62,8.822 98.028,8.164 C98.028,8.164 96.865,7.068 97.546,5.795 C97.546,5.795 97.831,4.962 99.06,4.962 C99.06,4.962 100.66,5.05 100.66,6.365 L100.66,8.22 L106.394,8.22 L106.384,5.488 C106.384,5.488 106.825,1.014 99.63,0.817 C99.63,0.817 93.971,0.445 92.348,3.493 C92.348,3.493 91.711,4.173 91.711,6.541 L91.711,8.252 C91.711,8.252 91.646,10.226 92.654,11.498 C92.654,11.498 93.224,12.332 94.628,13.252 C94.628,13.252 97.479,14.787 99.19,15.666 C99.19,15.666 100.917,16.652 100.69,18.221 C100.69,18.221 100.549,19.832 98.881,19.766 C98.881,19.766 97.356,19.698 97.356,18.118 L97.356,16.264 L91.246,16.264 L91.246,18.957 C91.246,18.957 91.075,24.107 98.926,24.107 C98.926,24.107 106.428,24.259 106.778,18.822 L106.778,16.629 C106.777,16.629 107.043,13.297 104.127,11.542 Z M74.771,1.458 L72.851,13.49 L72.402,13.49 L70.568,1.566 L60.99,1.566 L60.51,23.355 L66.181,23.355 L66.249,6.938 L66.695,6.938 L69.701,23.352 L75.667,23.352 L78.636,6.944 L79.031,6.944 L79.168,23.355 L84.869,23.355 L84.255,1.458 L74.771,1.458 Z M41.013,1.549 L37.24,23.33 L43.345,23.33 L45.58,6.442 L46.082,6.442 L48.316,23.33 L54.42,23.33 L50.648,1.549 L41.013,1.549 Z M169.115,11.242 L169.115,14.455 L170.681,14.455 L170.681,17.904 C170.681,19.59 169.24,19.621 169.24,19.621 C167.488,19.621 167.554,18.019 167.554,18.019 L167.554,6.089 C167.554,4.86 169.109,4.794 169.109,4.794 C170.601,4.794 170.611,6.26 170.611,6.26 L170.611,8.074 L176.359,8.074 C176.547,4.533 175.841,3.676 175.841,3.676 C174.415,0.474 169.021,0.649 169.021,0.649 C160.732,0.649 161.652,7.009 161.652,7.009 L161.652,18.544 C161.83,24.509 169.998,23.903 170.136,23.898 C173.769,23.496 174.866,22.341 174.866,22.341 C175.876,21.591 176.136,20.552 176.136,20.552 C176.425,19.947 176.497,18.019 176.497,18.019 L176.497,11.242 L169.115,11.242 Z M150.062,14.787 L149.812,14.787 L143.979,1.464 L137,1.464 L137,23.357 L142.68,23.357 L142.34,10.036 L142.594,10.036 L148.637,23.357 L155.404,23.357 L155.404,1.462 L149.652,1.462 L150.062,14.787 Z M123.135,17.902 C123.135,17.902 123.217,19.699 121.551,19.699 C121.551,19.699 119.799,19.793 119.799,17.947 L119.781,1.477 L113.551,1.477 L113.551,17.816 C113.551,17.816 112.912,24 121.639,24 C121.639,24 129.223,24.09 129.223,18.1 L129.223,1.478 L123.135,1.478 L123.135,17.902 Z M29.136,11.542 C29.136,11.542 27.579,10.578 26.614,10.206 C26.614,10.206 23.632,8.824 23.04,8.165 C23.04,8.165 21.877,7.067 22.559,5.797 C22.559,5.797 22.843,4.964 24.071,4.964 C24.071,4.964 25.672,5.051 25.672,6.366 L25.672,8.221 L31.408,8.221 L31.397,5.488 C31.397,5.488 31.835,1.014 24.643,0.818 C24.643,0.818 24.101,0.783 23.306,0.823 C23.306,0.823 18.949,1.057 17.391,3.447 C17.382,3.465 17.369,3.478 17.36,3.494 C17.36,3.494 16.724,4.173 16.724,6.542 L16.724,8.253 C16.724,8.253 16.658,10.227 17.667,11.499 C17.667,11.499 18.237,12.333 19.641,13.253 C19.641,13.253 22.491,14.788 24.202,15.667 C24.202,15.667 25.931,16.651 25.702,18.222 C25.702,18.222 25.561,19.833 23.894,19.767 C23.894,19.767 22.369,19.699 22.369,18.119 L22.369,16.264 L16.258,16.264 L16.258,18.959 C16.258,18.959 16.087,24.109 23.938,24.109 C23.938,24.109 31.438,24.261 31.791,18.824 L31.791,16.633 C31.791,16.631 32.053,13.297 29.136,11.542 Z" id="Shape"></path>
        </g>
    </g>
</svg>