<?xml version="1.0" standalone="no"?>
<!DOCTYPE svg PUBLIC "-//W3C//DTD SVG 20010904//EN"
 "http://www.w3.org/TR/2001/REC-SVG-20010904/DTD/svg10.dtd">
<svg version="1.0" xmlns="http://www.w3.org/2000/svg"
 width="600.000000pt" height="600.000000pt" viewBox="0 0 600.000000 600.000000"
 preserveAspectRatio="xMidYMid meet">
<metadata>
Created by potrace 1.11, written by Peter Selinger 2001-2013
</metadata>
<g transform="translate(0.000000,600.000000) scale(0.100000,-0.100000)"
fill="#000000" stroke="none">
<path d="M5100 5605 c-1 -35 -13 -109 -24 -140 -28 -87 -55 -135 -74 -135 -30
0 -32 -10 -13 -49 21 -43 18 -73 -7 -64 -16 5 -16 5 0 -8 15 -13 12 -21 -33
-100 -48 -83 -54 -90 -135 -139 -46 -28 -90 -49 -97 -47 -7 4 -6 6 4 6 9 1 19
8 22 15 4 11 1 13 -10 9 -13 -5 -12 1 6 28 19 28 16 26 -23 -13 -44 -47 -89
-70 -50 -27 19 21 19 22 -3 15 -12 -4 -63 -30 -113 -57 -49 -28 -94 -49 -100
-47 -5 1 16 45 47 96 31 51 54 95 51 97 -5 5 -42 -49 -114 -165 -36 -58 -44
-35 -8 25 31 53 26 71 -7 26 -24 -32 -39 -32 -39 0 0 32 -17 21 -24 -16 -4
-20 -11 -33 -15 -30 -5 2 -11 -8 -14 -23 -4 -15 -18 -40 -32 -57 l-26 -30 18
30 17 30 -24 -20 c-13 -11 -20 -14 -16 -7 12 21 -7 13 -37 -15 -17 -16 -27
-22 -23 -15 4 6 2 12 -4 12 -6 0 -8 6 -4 13 4 6 -20 -14 -53 -46 -42 -41 -62
-54 -66 -45 -3 8 4 25 15 39 18 22 19 22 8 2 -16 -34 -7 -28 30 20 24 29 26
36 9 21 -13 -12 -28 -20 -34 -18 -5 2 -25 -10 -44 -26 -18 -17 -37 -30 -41
-30 -10 0 -24 31 -21 45 1 6 -2 5 -9 -1 -8 -8 -8 -19 0 -40 11 -28 9 -31 -42
-77 -162 -147 -199 -179 -204 -175 -8 9 18 58 28 52 9 -6 12 3 23 51 6 29 6
29 -9 10 -8 -11 -16 -16 -16 -10 0 12 -65 -88 -80 -125 -7 -16 -20 -31 -29
-34 -9 -2 -51 -12 -93 -21 -43 -10 -75 -22 -72 -26 3 -5 1 -9 -5 -9 -5 0 -12
6 -14 13 -3 7 -6 5 -6 -6 -1 -10 -16 -23 -41 -33 -48 -19 -48 -28 -1 -14 l33
9 -27 -25 c-14 -13 -31 -21 -37 -18 -7 4 -8 2 -4 -4 4 -7 1 -12 -8 -12 -10 0
-13 -6 -10 -15 4 -8 13 -15 21 -15 24 0 9 -71 -19 -93 -13 -11 -37 -32 -55
-47 -17 -16 -34 -26 -37 -23 -3 4 -6 -3 -6 -15 0 -11 -4 -24 -10 -27 -5 -3
-15 -16 -21 -27 -10 -18 -9 -20 5 -15 9 4 16 2 16 -3 0 -17 -24 -65 -37 -73
-7 -4 -18 -17 -24 -29 -12 -22 -1 -19 32 9 13 11 16 11 16 -4 0 -16 -40 -90
-56 -103 -11 -9 -46 -84 -43 -92 1 -5 -3 -19 -10 -31 -7 -12 -12 -25 -13 -29
0 -3 -3 -10 -7 -14 -12 -11 -10 -24 4 -24 6 0 9 3 6 6 -4 3 6 18 21 32 15 15
31 36 35 46 3 10 9 16 12 13 4 -3 -5 -25 -19 -49 -35 -60 -46 -106 -13 -54
l25 39 6 -35 c6 -31 1 -43 -31 -89 -21 -30 -41 -56 -44 -59 -3 -3 -15 -24 -28
-48 -20 -38 -23 -52 -17 -110 l6 -67 -24 45 c-20 36 -26 41 -29 25 -5 -18 -6
-18 -16 5 -17 40 -14 11 8 -65 11 -38 20 -92 20 -120 l-1 -50 -19 35 c-13 23
-19 29 -20 17 0 -10 -4 -15 -10 -12 -13 8 -13 12 10 -70 11 -38 20 -86 20
-105 0 -50 -29 -261 -40 -287 -5 -13 -88 -134 -185 -271 -147 -208 -182 -251
-213 -264 -74 -33 -107 -48 -89 -43 60 17 65 13 14 -9 -54 -22 -94 -47 -55
-33 43 15 101 28 106 23 14 -14 -35 -44 -105 -65 -43 -13 -87 -27 -98 -32 -66
-28 -78 -29 -162 -13 -47 8 -87 14 -89 11 -2 -2 18 -19 45 -38 28 -18 48 -35
46 -37 -5 -5 -73 17 -108 35 -41 21 -33 8 18 -28 51 -37 46 -48 -20 -49 -26 0
-35 -3 -26 -9 9 -6 10 -11 2 -15 -6 -4 -11 -4 -11 -1 0 3 -6 0 -14 -7 -9 -9
-10 -15 -3 -20 15 -9 -25 -17 -108 -22 -38 -2 -78 -7 -87 -11 -11 -4 -40 6
-82 30 -74 41 -91 40 -20 -1 55 -32 53 -34 -76 -62 -72 -16 -136 -22 -261 -24
-132 -2 -163 -6 -153 -15 7 -7 23 -13 36 -14 25 0 70 -17 53 -19 -5 -1 -1 -5
10 -9 16 -6 5 -12 -50 -29 -81 -24 -152 -44 -247 -69 -37 -9 -64 -21 -61 -27
4 -5 -1 -7 -10 -3 -10 3 -17 2 -17 -3 0 -6 -6 -10 -12 -10 -7 0 -30 -5 -51
-11 -66 -18 -33 -21 48 -4 43 9 80 13 83 10 3 -3 -2 -5 -11 -5 -8 0 -22 -6
-30 -14 -7 -8 -42 -28 -76 -46 -56 -28 -66 -30 -92 -19 -17 6 -32 9 -35 7 -3
-3 7 -8 21 -12 14 -4 25 -10 25 -15 0 -19 -57 -31 -148 -31 -61 0 -92 -4 -83
-9 11 -7 9 -10 -10 -14 -21 -4 -20 -4 6 -6 22 -1 26 -4 16 -10 -10 -7 0 -11
34 -17 l48 -7 -29 -13 -29 -14 27 5 c44 8 32 -2 -23 -20 -85 -28 -46 -29 68
-1 96 23 117 25 188 17 44 -4 63 -9 43 -10 -43 -1 -52 -21 -10 -21 112 -1 444
-32 475 -45 42 -17 71 -20 47 -5 -13 8 -13 10 1 10 27 0 31 -13 7 -28 l-23
-13 25 5 c56 11 203 26 208 21 3 -3 -5 -5 -17 -5 -12 0 -20 -4 -17 -9 4 -5 -6
-14 -21 -19 -55 -20 5 -12 125 18 124 30 215 37 297 21 36 -6 37 -8 17 -15
-19 -6 -21 -10 -11 -22 7 -8 19 -12 28 -9 9 4 30 8 47 10 17 3 44 9 58 15 15
5 39 10 54 10 24 0 21 -4 -26 -31 -61 -36 -68 -46 -14 -23 84 37 117 41 306
42 216 0 269 16 89 25 -101 6 -184 15 -190 20 -1 1 105 49 235 106 131 57 265
119 300 138 34 19 62 31 62 28 0 -3 -7 -20 -16 -37 -22 -42 1 -25 32 24 32 50
42 43 15 -11 -12 -22 -21 -48 -21 -58 1 -10 14 10 30 44 16 35 33 63 38 63 9
0 80 62 210 184 l74 68 35 -33 c20 -19 33 -28 29 -21 -10 17 2 15 40 -9 29
-17 32 -24 24 -40 -14 -25 1 -24 33 1 30 24 43 25 63 5 9 -8 21 -15 27 -15 7
1 -1 11 -17 24 -18 15 -24 26 -17 30 6 4 15 5 20 1 5 -3 12 -1 16 5 4 6 10 8
15 5 8 -5 575 833 575 852 0 6 4 15 9 20 5 5 6 2 1 -7 -8 -13 -7 -13 8 -1 10
8 15 16 12 19 -3 3 2 17 11 31 10 16 -5 6 -37 -24 -40 -38 -48 -43 -34 -20
l18 29 -41 -33 c-39 -30 -42 -31 -42 -12 0 19 20 41 76 87 24 19 -1 7 -38 -18
-22 -16 -18 -6 24 57 35 51 54 71 60 63 5 -9 8 -7 8 6 0 22 40 96 52 96 5 0 6
-12 3 -27 -3 -17 1 -12 10 12 l14 40 -5 -55 c-3 -39 -2 -49 5 -35 l10 20 1
-20 c1 -12 7 -5 15 20 7 22 13 36 14 30 1 -5 5 -4 10 4 9 13 15 -8 37 -124 7
-37 8 -38 15 -15 4 14 7 46 8 73 1 48 8 56 29 35 9 -9 9 -4 2 23 -12 40 -13
160 -2 142 8 -12 11 -5 42 75 7 19 10 48 6 72 -4 23 -2 40 3 40 5 0 12 12 14
28 l4 27 2 -28 c0 -16 5 -25 11 -22 6 4 10 -11 11 -37 0 -33 2 -38 9 -23 5 11
9 34 10 50 l2 30 13 -30 c8 -16 15 -48 16 -70 l1 -40 9 49 c4 27 13 52 19 56
13 8 17 120 7 160 -6 20 -4 19 8 -5 13 -29 14 -26 15 60 0 67 3 86 11 75 9
-12 9 -11 3 5 -4 11 -9 54 -11 95 l-2 75 24 -50 c19 -38 23 -43 19 -20 -10 50
-16 69 -27 83 -13 16 -17 71 -6 78 5 3 6 -3 2 -12 -4 -11 -3 -15 5 -11 6 4 13
-1 15 -10 3 -11 5 -7 6 10 0 16 -3 36 -8 46 -12 21 9 67 28 63 7 -1 10 2 6 8
-3 6 -11 8 -16 5 -5 -4 -9 -2 -9 3 0 6 7 12 15 16 8 3 12 12 9 19 -3 8 6 42
20 76 14 34 22 69 19 78 -5 12 -3 14 7 8 8 -5 11 -3 8 6 -3 8 -1 24 3 37 7 17
5 22 -7 22 -10 0 -14 6 -11 18 3 9 8 35 11 57 5 39 4 38 -11 -10 -9 -27 -18
-44 -20 -37 -3 6 -9 12 -14 12 -13 0 -11 -28 2 -32 9 -3 8 -13 -1 -39 -11 -32
-15 -34 -46 -31 -23 3 -34 10 -35 21 0 12 -2 11 -9 -4 -7 -19 -9 -18 -19 8
-15 38 -13 74 5 122 18 44 26 138 13 129 -10 -6 -11 11 -3 43 4 14 11 20 18
16 6 -4 6 -1 -2 9 -10 12 -10 18 2 27 8 7 18 26 21 42 4 16 10 29 14 29 5 0
13 22 18 48 7 36 6 54 -3 68 -11 17 -7 27 31 83 24 35 90 109 147 163 l103 99
6 -43 c3 -24 7 -33 7 -20 1 12 9 25 17 28 8 4 15 14 15 23 0 25 20 41 52 41
15 0 28 4 28 9 0 6 26 17 58 27 31 9 71 22 87 29 42 19 6 19 -65 0 -68 -18
-72 -18 -37 1 45 24 25 27 -34 4 -63 -23 -69 -24 -69 -7 0 6 22 24 48 39 57
32 67 61 18 47 l-31 -8 30 26 30 25 -38 -22 c-46 -27 -58 -19 -34 21 11 21 14
36 8 47 -6 10 -3 22 10 36 11 11 19 33 19 49 0 16 14 54 31 83 17 30 27 54 23
54 -4 0 1 7 12 15 10 8 15 15 10 15 -6 0 -1 7 10 15 10 8 16 15 11 15 -4 0 4
18 18 41 15 22 25 45 22 52 -2 6 -28 -28 -58 -76 -30 -48 -57 -87 -61 -87 -16
0 -24 69 -18 140 4 41 4 84 -1 95 -6 15 -8 11 -9 -20z m-1033 -921 c-9 -9 -28
6 -21 18 4 6 10 6 17 -1 6 -6 8 -13 4 -17z m-573 -419 c-7 -16 -24 -21 -24 -6
0 8 7 13 27 20 1 1 0 -6 -3 -14z m-44 -19 c0 -2 -7 -17 -15 -32 l-15 -29 0 33
c0 22 5 32 15 32 8 0 15 -2 15 -4z m600 -26 c-8 -5 -15 -13 -15 -18 0 -4 -20
-30 -44 -58 -24 -27 -41 -43 -37 -36 13 22 -5 13 -26 -13 -11 -14 -30 -25 -42
-25 -12 0 -33 -11 -45 -24 -13 -13 -32 -27 -44 -30 -16 -4 -13 2 13 21 19 15
62 53 94 85 32 32 63 58 69 58 5 0 22 11 39 25 16 14 35 25 41 25 7 0 6 -4 -3
-10z m74 -160 c16 0 13 -29 -8 -85 -19 -51 -30 -28 -17 38 4 26 5 47 1 47 -5
0 -5 10 -2 23 l7 22 3 -22 c2 -13 9 -23 16 -23z m-384 -7 c-14 -16 -36 -39
-50 -52 -14 -13 -19 -20 -13 -17 7 4 23 9 34 11 12 3 30 11 39 20 16 15 18 14
23 -12 5 -23 0 -34 -31 -62 -48 -44 -21 -29 43 23 46 39 52 36 16 -9 -15 -18
-15 -19 1 -6 9 7 22 10 27 6 6 -3 22 2 37 12 27 17 27 17 15 -4 -16 -31 -14
-40 5 -17 15 18 15 18 10 -11 -5 -27 -4 -28 7 -11 6 10 22 31 35 45 22 25 22
24 -3 -24 -14 -27 -35 -64 -45 -81 -15 -24 -17 -31 -6 -31 8 0 12 6 8 15 -3
10 -1 13 7 8 6 -4 9 -16 6 -27 -4 -10 -2 -26 2 -34 7 -13 16 -6 41 34 18 27
32 57 32 67 0 9 3 14 7 11 3 -4 11 1 18 9 10 14 14 6 25 -47 8 -35 13 -73 11
-84 -3 -22 -128 -351 -142 -375 -4 -8 -9 -10 -10 -5 -1 6 -9 -57 -19 -139 -10
-82 -25 -163 -34 -180 -8 -17 -22 -47 -31 -66 -16 -35 -16 -35 -11 -5 21 125
37 252 40 320 4 78 4 79 -12 50 -8 -17 -21 -34 -28 -40 -8 -6 -21 -72 -34
-170 -11 -88 -27 -198 -35 -245 l-14 -85 5 100 c2 55 10 151 17 213 11 96 11
111 -1 95 -7 -10 -81 -127 -165 -260 -83 -133 -153 -240 -155 -238 -3 2 7 24
22 49 14 24 26 52 26 60 0 9 4 16 8 16 15 0 280 435 286 470 5 32 3 30 -28
-24 -20 -36 -35 -53 -39 -45 -4 11 -8 10 -21 -6 -17 -20 -17 -20 -12 3 4 12 9
32 12 44 6 20 5 21 -9 10 -19 -16 -43 -66 -52 -111 -6 -27 -4 -32 6 -26 8 5 4
-3 -8 -17 -13 -13 -23 -31 -23 -39 0 -12 -2 -12 -11 1 -9 12 -10 11 -6 -7 3
-13 1 -23 -4 -23 -5 0 -9 -7 -9 -15 0 -8 -3 -15 -8 -15 -11 0 -44 -80 -47
-113 -1 -15 -6 -31 -10 -35 -4 -4 -5 18 -2 48 6 50 5 53 -7 31 -13 -24 -14
-24 -20 -4 -4 11 -2 32 3 47 13 32 21 34 15 4 -4 -21 -4 -21 6 1 6 14 8 31 5
38 -3 9 0 11 7 7 7 -5 9 -2 6 8 -4 8 4 41 17 73 13 32 22 62 19 66 -3 5 3 20
12 34 13 20 14 29 5 38 -10 9 -11 8 -5 -6 3 -10 2 -17 -3 -15 -5 2 -22 -10
-36 -27 -20 -22 -15 -9 19 50 25 44 51 86 57 93 5 7 7 15 5 18 -3 3 -29 -29
-57 -71 -58 -88 -65 -90 -20 -7 23 43 26 51 9 32 -12 -14 -45 -51 -73 -84 -29
-32 -58 -69 -65 -82 -21 -40 -24 -27 -3 14 14 28 16 39 7 39 -7 0 -13 -5 -12
-11 1 -6 -3 -12 -8 -13 -5 -1 -13 -7 -17 -15 -7 -10 -9 -9 -9 5 0 10 -5 15
-11 12 -16 -11 27 70 47 86 11 9 15 9 10 2 -4 -7 -5 -13 -3 -13 10 0 47 72 41
81 -3 5 0 8 6 7 7 -2 34 31 60 72 50 77 59 97 38 84 -7 -4 -8 -3 -4 5 4 6 11
9 16 6 7 -4 31 28 144 197 12 19 14 26 5 23 -8 -3 -32 -35 -54 -71 -22 -36
-53 -75 -68 -86 -16 -11 -26 -26 -23 -34 3 -8 1 -13 -3 -11 -5 1 -21 -15 -35
-35 -14 -21 -21 -38 -15 -38 12 0 -19 -55 -40 -73 -10 -9 -10 -3 3 21 9 17 15
32 12 32 -5 0 -160 -238 -180 -278 -9 -18 -21 -30 -26 -27 -12 7 -4 23 55 115
23 36 92 153 155 260 62 107 122 211 134 230 18 31 12 28 -54 -30 -72 -62 -73
-57 -5 19 25 29 18 25 -40 -19 -38 -29 -82 -64 -96 -77 l-26 -24 2 43 c3 57 2
56 25 63 11 3 20 10 20 15 0 20 66 98 85 102 11 1 26 15 33 30 13 28 78 79
153 123 57 32 68 32 39 -2z m955 -80 c-3 -16 -10 -29 -15 -31 -4 -2 -6 -13 -3
-25 4 -19 3 -20 -7 -5 -13 20 -10 70 5 80 20 15 27 8 20 -19z m-68 -5 c-3 -8
-6 -5 -6 6 -1 11 2 17 5 13 3 -3 4 -12 1 -19z m-715 -100 c-7 -7 -12 -8 -12
-2 0 6 3 14 7 17 3 4 9 5 12 2 2 -3 -1 -11 -7 -17z m-617 -120 c-9 -41 -25
-60 -25 -29 0 23 16 61 26 61 3 0 3 -15 -1 -32z m-28 -87 c-2 -12 -6 -10 -16
7 -7 13 -9 31 -6 40 6 14 9 13 16 -7 6 -14 8 -32 6 -40z m53 51 c0 -4 -10 -13
-22 -21 -23 -14 -23 -14 -4 8 20 22 26 25 26 13z m-80 -97 c-12 -15 -14 -15
-22 -1 -5 10 -4 24 3 38 l12 23 10 -22 c7 -16 6 -27 -3 -38z m273 -70 c-3 -9
-8 -14 -10 -11 -3 3 -2 9 2 15 9 16 15 13 8 -4z m-358 -109 c-11 -16 -13 -26
-6 -31 6 -3 11 1 11 9 0 8 5 18 10 21 6 4 10 -12 9 -42 -1 -40 -2 -44 -10 -23
-7 23 -8 22 -7 -10 2 -70 -5 -74 -18 -10 -12 60 -13 61 -9 15 4 -46 3 -48 -10
-30 -9 11 -13 26 -10 35 4 10 3 12 -3 5 -6 -5 -12 -19 -15 -30 -5 -19 -5 -19
-6 1 0 11 15 42 35 67 39 50 55 63 29 23z m47 -3 c-3 -16 -7 -22 -10 -15 -4
13 4 42 11 42 2 0 2 -12 -1 -27z m268 -172 c0 -6 -12 -23 -26 -38 l-25 -28 23
37 c24 40 28 44 28 29z m1087 -63 c-2 -13 -4 -5 -4 17 -1 22 1 32 4 23 2 -10
2 -28 0 -40z m-978 -128 c-12 -22 -24 -38 -26 -36 -4 4 37 76 44 76 2 0 -6
-18 -18 -40z m-135 -25 c-4 -8 -10 -13 -15 -10 -4 3 -6 12 -3 20 4 8 10 13 15
10 4 -3 6 -12 3 -20z m1017 -28 c-10 -9 -11 -8 -5 6 3 10 9 15 12 12 3 -3 0
-11 -7 -18z m-754 -209 c-3 -7 -5 -2 -5 12 0 14 2 19 5 13 2 -7 2 -19 0 -25z
m-1370 -894 c-3 -3 -12 -4 -19 -1 -8 3 -5 6 6 6 11 1 17 -2 13 -5z m1223 -48
c0 -3 -4 -8 -10 -11 -5 -3 -10 -1 -10 4 0 6 5 11 10 11 6 0 10 -2 10 -4z m2
-58 c-9 -9 -15 -9 -24 0 -9 9 -7 12 12 12 19 0 21 -3 12 -12z m-18 -17 c3 -5
0 -13 -7 -19 -15 -13 -42 1 -33 17 9 13 33 15 40 2z m-34 -101 c0 -15 -5 -12
-26 11 -19 22 -19 22 4 10 12 -6 22 -16 22 -21z m-520 -149 c-18 -34 -11 -36
21 -5 l32 29 -18 -28 c-10 -16 -28 -33 -39 -37 -118 -48 -149 -59 -141 -51 12
12 148 111 153 111 1 0 -2 -9 -8 -19z m-1262 -308 c-27 -2 -69 -2 -95 0 -27 2
-5 3 47 3 52 0 74 -1 48 -3z m484 -7 c-19 -5 -45 -5 -64 0 -27 8 -23 9 32 9
55 0 59 -1 32 -9z m-687 -46 c-3 -5 -12 -10 -18 -10 -7 0 -6 4 3 10 19 12 23
12 15 0z"/>
<path d="M4009 4183 c-13 -16 -12 -17 4 -4 9 7 17 15 17 17 0 8 -8 3 -21 -13z"/>
<path d="M3750 3895 c-18 -19 -32 -37 -29 -39 2 -3 19 13 37 35 41 48 37 51
-8 4z"/>
<path d="M3839 3883 c-13 -16 -12 -17 4 -4 16 13 21 21 13 21 -2 0 -10 -8 -17
-17z"/>
<path d="M3809 3843 c-13 -16 -12 -17 4 -4 16 13 21 21 13 21 -2 0 -10 -8 -17
-17z"/>
<path d="M3486 3834 c-5 -14 -4 -15 9 -4 17 14 19 20 6 20 -5 0 -12 -7 -15
-16z"/>
<path d="M3641 3362 c-17 -31 -13 -40 5 -14 9 13 14 26 11 29 -3 2 -10 -4 -16
-15z"/>
<path d="M3226 3633 c-6 -14 -5 -15 5 -6 7 7 10 15 7 18 -3 3 -9 -2 -12 -12z"/>
<path d="M5120 5040 c-9 -6 -10 -10 -3 -10 6 0 15 5 18 10 8 12 4 12 -15 0z"/>
<path d="M3306 4241 c-4 -5 3 -7 14 -4 23 6 26 13 6 13 -8 0 -17 -4 -20 -9z"/>
<path d="M4840 3820 c8 -5 20 -10 25 -10 6 0 3 5 -5 10 -8 5 -19 10 -25 10 -5
0 -3 -5 5 -10z"/>
<path d="M4622 3080 c0 -14 2 -19 5 -12 2 6 2 18 0 25 -3 6 -5 1 -5 -13z"/>
<path d="M4571 3024 c0 -32 4 -68 9 -79 6 -12 7 9 3 55 -7 92 -13 104 -12 24z"/>
<path d="M4632 3015 c0 -16 2 -22 5 -12 2 9 2 23 0 30 -3 6 -5 -1 -5 -18z"/>
<path d="M4301 2744 c0 -11 3 -14 6 -6 3 7 2 16 -1 19 -3 4 -6 -2 -5 -13z"/>
<path d="M1675 1847 c26 -17 75 -38 75 -32 0 6 -76 45 -87 45 -4 0 1 -6 12
-13z"/>
<path d="M3565 1629 c-4 -6 -5 -12 -2 -15 2 -3 7 2 10 11 7 17 1 20 -8 4z"/>
<path d="M710 1436 c0 -2 9 -6 20 -9 11 -3 18 -1 14 4 -5 9 -34 13 -34 5z"/>
</g>
</svg>
